<?xml version="1.0" encoding="utf-8"?>
<!-- Generator: Adobe Illustrator 18.1.1, SVG Export Plug-In . SVG Version: 6.00 Build 0)  -->
<svg version="1.1" id="Layer_1" xmlns="http://www.w3.org/2000/svg" xmlns:xlink="http://www.w3.org/1999/xlink" x="0px" y="0px"
	 viewBox="0 0 200 60" enable-background="new 0 0 200 60" xml:space="preserve">
<path fill="#505050" d="M70,0l13.5,0l0,29.9c0,9.1,7.4,16.5,16.5,16.5c9.1,0,16.5-7.4,16.5-16.5l0-29.9H130l0,33.2
	C128.3,48.3,115.6,60,100.1,60c-16,0-29.1-12.6-30-28.4h0v0c0-0.6,0-1.1,0-1.7L70,0z M30.1,0c-0.6,0-1.1,0-1.7,0h0v0
	C12.6,0.9,0,14,0,30.1C0,45.6,11.7,58.3,26.8,60L60,60V46.5l-29.9,0c-9.1,0-16.5-7.4-16.5-16.5c0-9.1,7.4-16.5,16.5-16.5l29.9,0
	L60,0L30.1,0z M170.1,0c-0.6,0-1.1,0-1.7,0h0v0c-15.8,0.9-28.4,14-28.4,30c0,15.5,11.7,28.2,26.8,29.9l33.2,0V46.6l-29.9-0.1
	c-9.1,0-16.5-7.4-16.5-16.5c0-9.1,7.4-16.5,16.5-16.5l29.9,0L200,0L170.1,0z M171,23.3c-3.7,0-6.7,3-6.7,6.7c0,3.7,3,6.7,6.7,6.7
	h11.6V23.3H171z"/>
</svg>
